<?xml version="1.0" encoding="utf-8"?>
<!-- Generator: Adobe Illustrator 22.0.1, SVG Export Plug-In . SVG Version: 6.00 Build 0)  -->
<svg version="1.1" xmlns="http://www.w3.org/2000/svg" xmlns:xlink="http://www.w3.org/1999/xlink" x="0px" y="0px"
	 viewBox="0 0 2834.6 2834.6" style="enable-background:new 0 0 2834.6 2834.6;" xml:space="preserve">
<g id="圖層_1" style="display:none;">
	<path style="display:inline;fill:#FFFFFF;stroke:#000000;stroke-miterlimit:10;" d="M1031.2,1440.9H866.6c-6.6,0-12-5.4-12-12
		V679.6c0-6.6,5.4-12,12-12h164.6c6.6,0,12,5.4,12,12v749.3C1043.2,1435.5,1037.8,1440.9,1031.2,1440.9z"/>
	<path style="display:inline;fill:#FFFFFF;stroke:#000000;stroke-miterlimit:10;" d="M748.9,1490.1h-16.1c-2.7,0-2.2-5-4.8-4.8
		c-33.9,1.6-85.4-26.9-85.4-45.1c0-19.3,54.8-58,85.4-67.7c0.3-0.1,0-2,1.4-3.4c0.9-0.9,2.1-1.4,3.4-1.4h16.1c2.7,0,4.8,2.2,4.8,4.8
		v112.8C753.7,1487.9,751.6,1490.1,748.9,1490.1z"/>
	<ellipse style="display:inline;fill:#FFFFFF;stroke:#000000;stroke-miterlimit:10;" cx="635.3" cy="1439.3" rx="6.4" ry="12.9"/>
	<ellipse style="display:inline;fill:#FFFFFF;stroke:#000000;stroke-miterlimit:10;" cx="636.1" cy="1548.9" rx="11.3" ry="96.7"/>
	<ellipse style="display:inline;fill:#FFFFFF;stroke:#000000;stroke-miterlimit:10;" cx="636.1" cy="1329.7" rx="11.3" ry="96.7"/>
	<path style="display:inline;fill:#FFFFFF;stroke:#000000;stroke-miterlimit:10;" d="M891.5,1496.5H765.7c-6.6,0-12-5.4-12-12
		v-113.1c0-6.6,5.4-12,12-12h125.8c6.6,0,12,5.4,12,12v113.1C903.5,1491.1,898.1,1496.5,891.5,1496.5z"/>
	<path style="display:inline;fill:#FFFFFF;stroke:#000000;stroke-miterlimit:10;" d="M1171.6,1495.6H906.5c-1.6,0-2.8-2.2-2.8-4.8
		V1379c0-2.7,1.3-4.8,2.8-4.8c43.4,0,88.7,43.5,132.1,43.5c45,0,88.1-43.5,133-43.5c0.2,0,1.2,0,2,1.4c0.5,0.9,0.8,2.1,0.8,3.4
		v111.8C1174.4,1493.4,1173.2,1495.6,1171.6,1495.6z"/>
	<path style="display:inline;fill:#FFFFFF;stroke:#000000;stroke-miterlimit:10;" d="M2024.3,1494.5h-844.6c-2.7,0-4.8-2.2-4.8-4.8
		v-135.4c0-2.7,2.2-4.8,4.8-4.8l718.9,81.7c2.7,0,130.6-79.5,130.6-76.9v135.4C2029.2,1492.4,2027,1494.5,2024.3,1494.5z"/>
	<path style="display:inline;fill:#FFFFFF;stroke:#000000;stroke-miterlimit:10;" d="M2095.1,1458.7h-131.8c-4.2,0-7.6-3.4-7.6-7.6
		l0,0c0-4.2,3.4-7.6,7.6-7.6h131.8c4.2,0,7.6,3.4,7.6,7.6l0,0C2102.7,1455.2,2099.3,1458.7,2095.1,1458.7z"/>
	<path style="display:inline;fill:#FFFFFF;stroke:#000000;stroke-miterlimit:10;" d="M1029.3,2239.6H864.7c-6.6,0-12-5.4-12-12
		v-749.3c0-6.6,5.4-12,12-12h164.6c6.6,0,12,5.4,12,12v749.3C1041.3,2234.2,1035.9,2239.6,1029.3,2239.6z"/>
</g>
<g id="圖層_2" style="display:none;">
	
		<image style="display:inline;overflow:visible;" width="1024" height="1540" xlink:href="186652-59a63f780d6d8.jpg"  transform="matrix(1.3256 0 0 1.3256 1256.6724 440.2649)">
	</image>
</g>
<g id="圖層_3" style="display:none;">
	<g style="display:inline;">
		<polygon style="fill:#FFFFFF;" points="167,-472.2 51.5,-487.1 -5.7,-453.4 -7.9,-209.2 -11.6,-74.6 38.8,-80.5 30.1,-34 
			-230.4,-16.8 -254.1,-151 -350.9,-204.6 -333.2,3.5 -345.4,207 -263.4,178.5 -228.2,42.5 44.9,48.1 51.2,105.7 1.7,95.3 
			6.6,465.8 50.8,487.1 196,468.7 196.4,87.3 258.7,59.5 318.8,3.3 264.6,-48.5 199.9,-61 203,-448 		"/>
		<path style="fill:#FFFFFF;" d="M344.9-6.5h-24.8c-3.3,0-6-2.7-6-6v-162.9c0-3.3,2.7-6,6-6h24.8c3.3,0,6,2.7,6,6v162.9
			C350.9-9.2,348.2-6.5,344.9-6.5z"/>
		<path style="fill:#FFFFFF;" d="M344.9,194.4h-24.8c-3.3,0-6-2.7-6-6V25.5c0-3.3,2.7-6,6-6h24.8c3.3,0,6,2.7,6,6v162.9
			C350.9,191.7,348.2,194.4,344.9,194.4z"/>
		<path style="fill:#FFFFFF;" d="M332.9,24.5h-13c-6.6,0-12-5.4-12-12v-13c0-6.6,5.4-12,12-12h13c6.6,0,12,5.4,12,12v13
			C344.9,19.1,339.5,24.5,332.9,24.5z"/>
	</g>
</g>
<g id="圖層_4" style="display:none;">
	<circle style="display:inline;fill:#FFFFFF;" cx="0" cy="0" r="102.6"/>
	<path style="display:inline;fill:#FFFFFF;" d="M0-126.1L0-126.1c-6,0-11-4.9-11-11v-315.1c0-6,4.9-11,11-11h0c6,0,11,4.9,11,11
		v315.1C11-131,6.1-126.1,0-126.1z"/>
	<path style="display:inline;fill:#FFFFFF;" d="M0,463.2L0,463.2c-6,0-11-4.9-11-11V137.1c0-6,4.9-11,11-11h0c6,0,11,4.9,11,11
		v315.1C11,458.2,6,463.2,0,463.2z"/>
	<path style="display:inline;fill:#FFFFFF;" d="M126.1,0L126.1,0c0-6,4.9-11,11-11h315.1c6,0,11,4.9,11,11v0c0,6-4.9,11-11,11H137.1
		C131,11,126.1,6.1,126.1,0z"/>
	<path style="display:inline;fill:#FFFFFF;" d="M-463.2,0L-463.2,0c0-6,4.9-11,11-11h315.1c6,0,11,4.9,11,11v0c0,6-4.9,11-11,11
		h-315.1C-458.2,11-463.2,6-463.2,0z"/>
	<path style="display:inline;fill:#FFFFFF;" d="M-89.1-89.2L-89.1-89.2c-4.3,4.3-11.3,4.3-15.5,0L-327.5-312
		c-4.3-4.3-4.3-11.3,0-15.5l0,0c4.3-4.3,11.3-4.3,15.5,0l222.8,222.8C-84.9-100.4-84.9-93.4-89.1-89.2z"/>
	<path style="display:inline;fill:#FFFFFF;" d="M327.5,327.5L327.5,327.5c-4.3,4.3-11.3,4.3-15.5,0L89.1,104.7
		c-4.3-4.3-4.3-11.3,0-15.5l0,0c4.3-4.3,11.3-4.3,15.5,0L327.5,312C331.8,316.3,331.8,323.2,327.5,327.5z"/>
	<path style="display:inline;fill:#FFFFFF;" d="M89.2-89.1L89.2-89.1c-4.3-4.3-4.3-11.3,0-15.5L312-327.5c4.3-4.3,11.3-4.3,15.5,0
		l0,0c4.3,4.3,4.3,11.3,0,15.5L104.7-89.1C100.4-84.9,93.4-84.9,89.2-89.1z"/>
	<path style="display:inline;fill:#FFFFFF;" d="M-327.5,327.5L-327.5,327.5c-4.3-4.3-4.3-11.3,0-15.5l222.8-222.8
		c4.3-4.3,11.3-4.3,15.5,0l0,0c4.3,4.3,4.3,11.3,0,15.5L-312,327.5C-316.3,331.8-323.2,331.8-327.5,327.5z"/>
	<path style="display:inline;fill:#FFFFFF;" d="M0,554.5c-74.8,0-147.5-14.7-215.8-43.6c-66-27.9-125.3-67.9-176.2-118.8
		S-483,281.9-510.9,215.8c-28.9-68.4-43.6-141-43.6-215.8s14.7-147.5,43.6-215.8c27.9-66,67.9-125.3,118.8-176.2
		s110.2-90.9,176.2-118.8c68.4-28.9,141-43.6,215.8-43.6s147.5,14.7,215.8,43.6c66,27.9,125.3,67.9,176.2,118.8
		S483-281.9,510.9-215.8c28.9,68.4,43.6,141,43.6,215.8s-14.7,147.5-43.6,215.8c-27.9,66-67.9,125.3-118.8,176.2
		S281.9,483,215.8,510.9C147.5,539.8,74.8,554.5,0,554.5z M0-534.5c-72.2,0-142.1,14.1-208,42c-63.6,26.9-120.8,65.5-169.9,114.5
		S-465.5-271.7-492.5-208c-27.9,65.9-42,135.9-42,208s14.1,142.1,42,208c26.9,63.6,65.5,120.8,114.5,169.9s106.2,87.6,169.9,114.5
		c65.9,27.9,135.9,42,208,42s142.1-14.1,208-42c63.6-26.9,120.8-65.5,169.9-114.5S465.5,271.7,492.5,208c27.9-65.9,42-135.9,42-208
		s-14.1-142.1-42-208c-26.9-63.6-65.5-120.8-114.5-169.9S271.7-465.5,208-492.5C142.1-520.3,72.2-534.5,0-534.5z"/>
</g>
<g id="圖層_5" style="display:none;">
	<path style="display:inline;fill:#FFFFFF;" d="M0,554.5c-74.8,0-147.5-14.7-215.8-43.6c-66-27.9-125.3-67.9-176.2-118.8
		S-483,281.9-510.9,215.8c-28.9-68.4-43.6-141-43.6-215.8s14.7-147.5,43.6-215.8c27.9-66,67.9-125.3,118.8-176.2
		s110.2-90.9,176.2-118.8c68.4-28.9,141-43.6,215.8-43.6s147.5,14.7,215.8,43.6c66,27.9,125.3,67.9,176.2,118.8
		S483-281.9,510.9-215.8c28.9,68.4,43.6,141,43.6,215.8s-14.7,147.5-43.6,215.8c-27.9,66-67.9,125.3-118.8,176.2
		S281.9,483,215.8,510.9C147.5,539.8,74.8,554.5,0,554.5z M0-534.5c-72.2,0-142.1,14.1-208,42c-63.6,26.9-120.8,65.5-169.9,114.5
		S-465.5-271.7-492.5-208c-27.9,65.9-42,135.9-42,208s14.1,142.1,42,208c26.9,63.6,65.5,120.8,114.5,169.9s106.2,87.6,169.9,114.5
		c65.9,27.9,135.9,42,208,42s142.1-14.1,208-42c63.6-26.9,120.8-65.5,169.9-114.5S465.5,271.7,492.5,208c27.9-65.9,42-135.9,42-208
		s-14.1-142.1-42-208c-26.9-63.6-65.5-120.8-114.5-169.9S271.7-465.5,208-492.5C142.1-520.3,72.2-534.5,0-534.5z"/>
	<path style="display:inline;fill:#FFFFFF;" d="M-112.7-198L-112.7-198c4.7,4.7,12.3,4.7,17,0L144-437.7c4.7-4.7,4.7-12.3,0-17l0,0
		c-4.7-4.7-12.3-4.7-17,0L-112.7-215C-117.3-210.3-117.3-202.7-112.7-198z"/>
	<path style="display:inline;fill:#FFFFFF;" d="M-460.8-16L-460.8-16c4.7,4.7,12.3,4.7,17,0l239.7-239.7c4.7-4.7,4.7-12.3,0-17l0,0
		c-4.7-4.7-12.3-4.7-17,0L-460.8-33C-465.5-28.3-465.5-20.7-460.8-16z"/>
	<path style="display:inline;fill:#FFFFFF;" d="M151.4-18L151.4-18c4.7,4.7,12.3,4.7,17,0l239.7-239.7c4.7-4.7,4.7-12.3,0-17l0,0
		c-4.7-4.7-12.3-4.7-17,0L151.4-35C146.7-30.3,146.7-22.7,151.4-18z"/>
	<path style="display:inline;fill:#FFFFFF;" d="M-209.8,97L-209.8,97c4.7,4.7,12.3,4.7,17,0L47-142.7c4.7-4.7,4.7-12.3,0-17l0,0
		c-4.7-4.7-12.3-4.7-17,0L-209.8,80C-214.4,84.7-214.4,92.3-209.8,97z"/>
	<path style="display:inline;fill:#FFFFFF;" d="M-290.8,357L-290.8,357c4.7,4.7,12.3,4.7,17,0l239.7-239.7c4.7-4.7,4.7-12.3,0-17
		l0,0c-4.7-4.7-12.3-4.7-17,0L-290.8,340C-295.5,344.7-295.5,352.3-290.8,357z"/>
	<path style="display:inline;fill:#FFFFFF;" d="M164,180.4L164,180.4c4.7,4.7,12.3,4.7,17,0L420.7-59.3c4.7-4.7,4.7-12.3,0-17l0,0
		c-4.7-4.7-12.3-4.7-17,0L164,163.4C159.3,168.1,159.3,175.7,164,180.4z"/>
	<path style="display:inline;fill:#FFFFFF;" d="M22.2,461L22.2,461c4.7,4.7,12.3,4.7,17,0l239.7-239.7c4.7-4.7,4.7-12.3,0-17l0,0
		c-4.7-4.7-12.3-4.7-17,0L22.2,444C17.5,448.7,17.5,456.3,22.2,461z"/>
</g>
<g id="圖層_6" style="display:none;">
	<path style="display:inline;fill:#FFFFFF;" d="M0,554.5c-74.8,0-147.5-14.7-215.8-43.6c-66-27.9-125.3-67.9-176.2-118.8
		S-483,281.9-510.9,215.8c-28.9-68.4-43.6-141-43.6-215.8s14.7-147.5,43.6-215.8c27.9-66,67.9-125.3,118.8-176.2
		s110.2-90.9,176.2-118.8c68.4-28.9,141-43.6,215.8-43.6s147.5,14.7,215.8,43.6c66,27.9,125.3,67.9,176.2,118.8
		S483-281.9,510.9-215.8c28.9,68.4,43.6,141,43.6,215.8s-14.7,147.5-43.6,215.8c-27.9,66-67.9,125.3-118.8,176.2
		S281.9,483,215.8,510.9C147.5,539.8,74.8,554.5,0,554.5z M0-534.5c-72.2,0-142.1,14.1-208,42c-63.6,26.9-120.8,65.5-169.9,114.5
		S-465.5-271.7-492.5-208c-27.9,65.9-42,135.9-42,208s14.1,142.1,42,208c26.9,63.6,65.5,120.8,114.5,169.9s106.2,87.6,169.9,114.5
		c65.9,27.9,135.9,42,208,42s142.1-14.1,208-42c63.6-26.9,120.8-65.5,169.9-114.5S465.5,271.7,492.5,208c27.9-65.9,42-135.9,42-208
		s-14.1-142.1-42-208c-26.9-63.6-65.5-120.8-114.5-169.9S271.7-465.5,208-492.5C142.1-520.3,72.2-534.5,0-534.5z"/>
	<path style="display:inline;fill:#FFFFFF;" d="M-100.8-3.2c0-200.9,142.6-368.5,332.1-407c-21.3-3.4-43.1-5.1-65.3-5.1
		c-229.4,0-415.3,186-415.3,415.3s186,415.3,415.3,415.3c28.5,0,56.3-2.9,83.2-8.3C50.9,375.7-100.8,203.9-100.8-3.2z"/>
</g>
</svg>
